<svg width="40" height="40" viewBox="0 0 40 40" fill="none" xmlns="http://www.w3.org/2000/svg">
<path d="M19.9288 0C15.2313 0 10.8185 1.57143 7.25977 4.57143C6.69037 5.14286 6.54803 6 7.11742 6.57143C7.68682 7.14286 8.54091 7.28571 9.1103 6.71429C16.2277 0.714286 27.0462 1.71429 33.0249 9C35.5872 12.1429 37.0107 16 37.0107 20C37.0107 23.8571 35.7295 27.5714 33.4519 30.5714C33.0249 31.1429 33.0249 32.1429 33.7366 32.5714C34.4484 33 35.3025 33 35.7295 32.2857C38.4341 28.7143 40 24.4286 40 20C39.8576 9 30.8897 0 19.9288 0Z" fill="black"/>
<path d="M30.8897 33.1429C23.6299 39.1429 12.8114 38.1429 6.83274 30.8571C4.27046 27.8571 2.84698 24 2.84698 20C2.84698 16.1429 4.12811 12.4286 6.40569 9.42858C6.83274 8.85715 6.83274 7.85715 6.121 7.42858C5.5516 7 4.69751 7 4.27046 7.71429C1.42349 11.1429 0 15.5714 0 20C0 31 8.96797 40 19.9288 40C24.6263 40 29.0391 38.4286 32.5979 35.4286C33.1673 35 33.3096 34 32.7402 33.4286C32.3132 32.7143 31.4591 32.7143 30.8897 33.1429Z" fill="black"/>
<path d="M11.5303 27.7143L10.2491 29C9.67974 29.5714 9.67974 30.4286 10.2491 31C10.8185 31.5714 11.6726 31.5714 12.242 31L13.6655 29.5714C17.3666 32 22.2064 32 25.9075 29.5714L27.331 31C27.9004 31.5714 28.7545 31.5714 29.3239 31C29.8933 30.4286 29.8933 29.5714 29.3239 29L28.0427 27.7143C32.1708 23.2857 32.1708 16.5714 28.0427 12.1429L29.3239 10.8572C29.8933 10.2857 29.8933 9.42859 29.3239 8.85716C28.7545 8.28573 27.9004 8.28573 27.331 8.85716L25.9075 10.2857C22.2064 7.85716 17.3666 7.85716 13.6655 10.2857L12.242 8.85716C11.6726 8.28573 10.8185 8.28573 10.2491 8.85716C9.67974 9.42859 9.67974 10.2857 10.2491 10.8572L11.5303 12.1429C7.54451 16.5714 7.54451 23.4286 11.5303 27.7143ZM28.4698 20C28.4698 24.7143 24.6264 28.5714 19.9289 28.5714C15.2313 28.5714 11.3879 24.7143 11.3879 20C11.3879 15.2857 15.2313 11.4286 19.9289 11.4286C24.6264 11.4286 28.4698 15.2857 28.4698 20Z" fill="black"/>
</svg>
