<svg width="188" height="24" viewBox="0 0 188 24" fill="none" xmlns="http://www.w3.org/2000/svg">
<path d="M30.8394 23.9881C34.5256 24.1864 37.8463 21.8021 38.7936 18.2783C39.6245 14.4822 37.7788 11.931 33.5669 9.50078C32.2489 8.74115 32.1834 8.07333 32.306 7.52656C32.3683 7.04031 32.8596 6.58536 33.8121 6.58536C34.9025 6.73448 35.8938 7.29988 36.5801 8.16412L40.8231 4.45984C39.9227 3.37697 38.793 2.50966 37.5165 1.92117C36.2399 1.33268 34.8488 1.03785 33.4444 1.05817C30.0033 0.848439 26.88 3.03552 25.942 6.31198C25.1423 9.86495 26.9568 12.6593 30.9536 14.9894C32.4286 15.87 32.5833 16.5994 32.4597 17.2672C32.3731 17.6271 32.1615 17.9442 31.8629 18.1613C31.5643 18.3784 31.1985 18.4813 30.8311 18.4516C28.6789 18.4516 26.988 15.9921 26.988 15.9921L22.5601 19.3416C24.2885 22.233 27.4398 24.0027 30.8394 23.9881ZM53.4814 1.05087C54.4537 1.00366 55.4241 1.17815 56.3197 1.56125C57.2153 1.94436 58.013 2.52614 58.653 3.263C59.2824 3.98895 59.7334 4.85318 59.9697 5.78616C60.2061 6.71914 60.2211 7.69483 60.0137 8.63471C59.3385 12.5122 55.7561 15.2398 51.7604 14.9195H49.2042L47.4447 22.9562H40.8231L45.627 1.05087H53.4814ZM52.4345 6.47998H51.0561L50.3789 9.65208H51.8881C52.799 9.69382 53.5957 9.05731 53.7359 8.17246L53.7266 8.18081C53.7796 7.97173 53.7817 7.75291 53.7329 7.54281C53.6841 7.3327 53.5858 7.13746 53.4461 6.97353C53.3041 6.80716 53.1256 6.67611 52.9246 6.59066C52.7237 6.50521 52.5058 6.46768 52.288 6.48102L52.4345 6.47998ZM67.6604 23.985C72.5255 24.2584 76.7758 20.7399 77.3979 15.9243L80.5711 1.04357H73.882L70.8647 15.1803C70.5842 16.5754 69.9008 17.2881 68.7177 17.2881C67.1317 17.2881 66.7183 16.3281 67.007 15.1177L69.9932 1.04357H63.3042L60.4167 14.7462C59.1443 20.792 62.7755 23.985 67.6604 23.985ZM94.481 1.04983C95.4277 1.00545 96.3721 1.1769 97.2434 1.55133C98.1148 1.92576 98.8904 2.49345 99.5123 3.21187C100.125 3.92081 100.565 4.7638 100.796 5.67362C101.027 6.58344 101.043 7.5349 100.843 8.45211C100.417 10.8896 98.7624 12.9494 96.4503 13.9198L100.163 22.9562H93.164L90.0708 14.6169L88.25 22.9562H81.6461L86.3627 1.04983H94.481ZM93.1338 6.48832H92.3008L91.4408 10.4472H92.5813C93.7145 10.514 94.7189 9.73452 94.9162 8.63367C94.9936 8.37153 95.005 8.0942 94.9496 7.82652C94.8941 7.55884 94.7734 7.30915 94.5984 7.09979C94.2421 6.67197 93.6947 6.44241 93.1338 6.48832Z" fill="#2FACD6"/>
<path d="M119.246 1.04376H102.336L100.983 7.17929H106.117L102.705 22.9564H109.315L112.727 7.17929H117.892L119.246 1.04376Z" fill="#2FACD6"/>
<path d="M131.118 23.9828C134.774 24.1779 138.298 22.6169 140.583 19.7923L135.79 15.9952C135.276 16.5717 134.645 17.0323 133.941 17.3465C133.236 17.6607 132.474 17.8214 131.703 17.8181C130.963 17.8102 130.234 17.6339 129.571 17.3024C128.908 16.971 128.329 16.493 127.876 15.9044C127.429 15.3215 127.123 14.6424 126.982 13.9205C126.841 13.1986 126.868 12.4536 127.062 11.7441C127.495 9.13025 129.782 7.21342 132.462 7.21864C134.498 7.23429 136.304 8.50939 136.98 10.4074L142.88 7.82593C141.388 3.73453 137.446 1.01946 133.046 1.05389C126.937 0.813896 121.598 5.08998 120.568 11.045C120.225 12.6047 120.239 14.2225 120.609 15.7759C120.98 17.3294 121.698 18.7778 122.708 20.0114C123.73 21.2573 125.014 22.2599 126.469 22.9466C127.923 23.6334 129.511 23.9873 131.118 23.9828ZM142.88 23.9995H149.175L151.377 15.8637L154.825 23.4047L161.271 16.5837L160.184 23.9995H166.449L169.736 0L156.68 13.0484L149.729 0L142.88 23.9995ZM178.003 23.988C181.694 24.1905 185.021 21.8051 185.969 18.2782C186.8 14.4811 184.955 11.9298 180.741 9.50068C179.422 8.74104 179.356 8.07323 179.48 7.52646C179.541 7.0402 180.033 6.58526 180.986 6.58526C182.077 6.73432 183.068 7.29971 183.755 8.16401L188 4.45974C187.099 3.37666 185.968 2.50925 184.691 1.92077C183.414 1.33229 182.022 1.03756 180.617 1.05807C177.176 0.848331 174.051 3.03542 173.112 6.31187C172.312 9.86484 174.127 12.6592 178.126 14.9893C179.602 15.8699 179.757 16.5983 179.632 17.2671C179.546 17.6272 179.334 17.9444 179.035 18.1615C178.736 18.3786 178.37 18.4815 178.003 18.4515C175.85 18.4515 174.158 15.991 174.158 15.991L169.737 19.3405C171.462 22.2277 174.608 23.9953 178.003 23.988Z" fill="#2FACD6"/>
<path d="M19.7005 13.3355H8.14632C7.94151 13.3033 7.75482 13.1989 7.61969 13.0409C7.48456 12.883 7.40982 12.6819 7.40886 12.4736C7.40886 12.0469 7.72046 11.6827 8.14632 11.6128H19.7005C19.9052 11.645 20.0917 11.7493 20.2268 11.907C20.3619 12.0647 20.4368 12.2656 20.438 12.4736C20.4368 12.6817 20.3619 12.8826 20.2268 13.0403C20.0917 13.198 19.9052 13.3033 19.7005 13.3355ZM21.6439 2.99592H8.26577C8.10869 3.00418 7.95229 2.96978 7.81302 2.89633C7.67375 2.82289 7.55674 2.71311 7.4743 2.57853C7.39307 2.44501 7.35009 2.29155 7.35009 2.13507C7.35009 1.97858 7.39307 1.82512 7.4743 1.6916C7.55674 1.55702 7.67375 1.44724 7.81302 1.3738C7.95229 1.30035 8.10869 1.26595 8.26577 1.27421H21.6439C21.801 1.26595 21.9574 1.30035 22.0966 1.3738C22.2359 1.44724 22.3529 1.55702 22.4354 1.6916C22.6015 1.96498 22.6015 2.30515 22.4354 2.57853C22.3529 2.71311 22.2359 2.82289 22.0966 2.89633C21.9574 2.96978 21.801 3.00418 21.6439 2.99592ZM18.2588 8.1652H0.828862C0.607095 8.1561 0.397318 8.06162 0.243007 7.90136C0.0886958 7.74109 0.00168224 7.52732 0 7.30435C0 6.84523 0.363536 6.46646 0.828862 6.4435H18.2578C18.4796 6.45261 18.6894 6.54708 18.8437 6.70735C18.998 6.86762 19.085 7.08138 19.0867 7.30435C19.0867 7.76347 18.7231 8.14225 18.2588 8.1652Z" fill="#2FACD6"/>
</svg>
