<svg width="16" height="16" viewBox="0 0 16 16" fill="none" xmlns="http://www.w3.org/2000/svg">
<path d="M1.18846e-06 1.75067V9.25067C1.03251e-06 9.34918 0.0194272 9.44673 0.0571681 9.53773C0.094909 9.62873 0.150224 9.7114 0.219947 9.781C0.28967 9.8506 0.372434 9.90576 0.463501 9.94334C0.554568 9.98092 0.652152 10.0002 0.750668 10H3.25067C3.34907 10 3.44651 9.98062 3.53743 9.94296C3.62834 9.9053 3.71094 9.85011 3.78053 9.78053C3.85011 9.71094 3.9053 9.62834 3.94296 9.53742C3.98062 9.44651 4 9.34907 4 9.25067V1.75067C4.00018 1.65215 3.98092 1.55457 3.94334 1.4635C3.90577 1.37243 3.8506 1.28967 3.781 1.21995C3.7114 1.15022 3.62873 1.09491 3.53773 1.05717C3.44673 1.01943 3.34918 1 3.25067 1H0.750668C0.65204 0.999824 0.554347 1.01912 0.463192 1.05678C0.372038 1.09445 0.289216 1.14973 0.219475 1.21947C0.149734 1.28921 0.0944468 1.37204 0.0567845 1.46319C0.0191222 1.55435 -0.000174463 1.65204 1.18846e-06 1.75067ZM1.25067 8C1.25067 7.85148 1.29473 7.70629 1.37727 7.58281C1.45981 7.45934 1.57713 7.36312 1.71438 7.30635C1.85162 7.24957 2.00262 7.23478 2.14827 7.26386C2.29392 7.29293 2.42768 7.36456 2.53261 7.46967C2.63754 7.57479 2.70893 7.70867 2.73774 7.85437C2.76655 8.00007 2.7515 8.15105 2.69448 8.28819C2.63746 8.42534 2.54103 8.54248 2.41741 8.62481C2.29379 8.70713 2.14853 8.75093 2 8.75067C1.90148 8.75067 1.80394 8.73124 1.71294 8.6935C1.62194 8.65576 1.53927 8.60044 1.46967 8.53072C1.40007 8.461 1.3449 8.37823 1.30732 8.28717C1.26975 8.1961 1.25049 8.09852 1.25067 8ZM9.75067 16C9.12 16 8.82934 14.772 8.684 14.1933C8.58793 13.5187 8.31154 12.8826 7.884 12.352C6.88133 11.3333 6.34933 10.0413 5.11067 8.81867C5.0755 8.78375 5.04761 8.7422 5.02862 8.69642C5.00962 8.65065 4.99989 8.60156 5 8.552V1.86667C4.99999 1.76844 5.03854 1.67414 5.10737 1.60407C5.1762 1.53399 5.26979 1.49375 5.368 1.492C5.94156 1.42327 6.49852 1.25401 7.01334 0.992C8.17178 0.393767 9.44671 0.0552428 10.7493 0L10.8387 0C12.172 0 13.756 0.0133333 14.3947 0.933333C14.527 1.13749 14.6128 1.36826 14.646 1.60929C14.6792 1.85031 14.6589 2.09568 14.5867 2.328C14.8632 2.64248 15.0553 3.02209 15.1449 3.43118C15.2344 3.84027 15.2185 4.26541 15.0987 4.66667C15.3511 5.02331 15.51 5.43761 15.5608 5.8716C15.6116 6.30558 15.5526 6.74538 15.3893 7.15067C15.7784 7.56687 15.9964 8.11431 16 8.684C15.9868 9.17024 15.7843 9.63212 15.4357 9.9713C15.087 10.3105 14.6198 10.5002 14.1333 10.5H10.96C11.188 11.3853 12 12.1333 12 13.4547C12 15.7507 10.5 16 9.75067 16Z" fill="black"/>
</svg>
