<svg width="16" height="16" viewBox="0 0 16 16" fill="none" xmlns="http://www.w3.org/2000/svg">
<path d="M1.18846e-06 14.2459V6.74842C-0.000174463 6.64982 0.0191222 6.55216 0.0567845 6.46104C0.0944468 6.36991 0.149734 6.28712 0.219475 6.2174C0.289215 6.14768 0.372038 6.09241 0.463192 6.05476C0.554347 6.01712 0.65204 5.99783 0.750668 5.998H3.25067C3.34918 5.998 3.44673 6.01742 3.53773 6.05515C3.62873 6.09288 3.7114 6.14817 3.781 6.21787C3.8506 6.28757 3.90577 6.37031 3.94334 6.46135C3.98092 6.55238 4.00018 6.64993 4 6.74842V14.2459C4.00018 14.3444 3.98092 14.442 3.94334 14.533C3.90577 14.624 3.8506 14.7068 3.781 14.7765C3.7114 14.8462 3.62873 14.9015 3.53773 14.9392C3.44673 14.9769 3.34918 14.9963 3.25067 14.9963H0.750668C0.65204 14.9965 0.554347 14.9772 0.463192 14.9396C0.372038 14.9019 0.289215 14.8467 0.219475 14.7769C0.149734 14.7072 0.0944468 14.6244 0.0567845 14.5333C0.0191222 14.4422 -0.000174463 14.3445 1.18846e-06 14.2459ZM1.25067 7.99733C1.2504 8.14587 1.29424 8.29113 1.37662 8.41474C1.459 8.53835 1.57623 8.63474 1.71345 8.69171C1.85067 8.74867 2.00172 8.76364 2.14745 8.73473C2.29319 8.70582 2.42707 8.63432 2.53213 8.52929C2.6372 8.42426 2.70872 8.29043 2.73764 8.14474C2.76656 7.99905 2.75159 7.84805 2.6946 7.71088C2.63762 7.5737 2.5412 7.45652 2.41755 7.37416C2.2939 7.29181 2.14858 7.24799 2 7.24825C1.80127 7.24825 1.61067 7.32717 1.47014 7.46765C1.32961 7.60813 1.25067 7.79867 1.25067 7.99733ZM9.75067 0C9.12 0 8.82933 1.22759 8.684 1.80606C8.58792 2.48043 8.31154 3.11638 7.884 3.64678C6.86933 4.66245 6.33733 5.95801 5.09867 7.18027C5.0635 7.21518 5.03561 7.25672 5.01662 7.30248C4.99762 7.34824 4.98789 7.39731 4.988 7.44685V14.1286C4.98799 14.2268 5.02654 14.3211 5.09537 14.3911C5.1642 14.4612 5.25779 14.5014 5.356 14.5032C5.92989 14.5735 6.48686 14.7446 7.00133 15.0083C8.15897 15.606 9.43295 15.9444 10.7347 16H10.824C12.1573 16 13.7413 15.9867 14.38 15.067C14.5123 14.8629 14.5981 14.6322 14.6313 14.3913C14.6645 14.1503 14.6442 13.905 14.572 13.6728C14.852 13.3593 15.0473 12.9795 15.1394 12.5695C15.2316 12.1594 15.2176 11.7327 15.0987 11.3296C15.3511 10.973 15.51 10.5589 15.5608 10.125C15.6116 9.69119 15.5526 9.25154 15.3893 8.84639C15.7783 8.43032 15.9964 7.88306 16 7.31356C15.9868 6.82749 15.7843 6.36576 15.4357 6.02669C15.087 5.68762 14.6198 5.49799 14.1333 5.49817H10.96C11.188 4.61313 12 3.86538 12 2.54449C12 0.250583 10.5 0 9.75067 0Z" fill="black"/>
</svg>
